<svg xmlns="http://www.w3.org/2000/svg" viewBox="0 -37.38 87.23 39.92">
  <path d="M 17.94 -4.16 C 19.05 -3.58 19.89 -2.93 20.48 -2.41 L 22.69 -0.33 L 26.26 -4.55 L 12.54 -14.88 L 11.63 -15.79 L 26.13 -25.41 L 25.35 -26.65 C 22.04 -24.38 17.29 -21.39 17.29 -21.39 C 17.29 -21.39 21.97 -24.57 25.22 -26.78 L 22.43 -31.07 L 11.96 -23.46 L 10.01 -22.43 L 9.81 -35.43 L 8.13 -35.62 C 8.19 -32.11 8.19 -28.73 8.13 -27.23 C 8.06 -25.41 8 -30.29 8 -35.69 L 2.54 -36.27 L 3.51 -23.66 L 0 -16.57 L 3.83 -13.65 L 3.64 0.91 L 5 0.91 L 4.81 -2.47 L 4.81 -9.17 C 4.88 -5.59 5.4 -1.04 5.66 0.91 L 10.4 0.72 L 10.27 -8.84 L 11.44 -7.93 L 21.19 1.43 L 22.1 0.39 C 21.52 -0.26 20.15 -1.69 19.76 -2.02 C 19.3 -2.47 17.62 -3.71 17.36 -4.03 C 17.03 -4.42 16.84 -4.75 17.94 -4.16 Z M 5.2 -22.23 C 4.94 -26.39 4.68 -30.62 4.68 -32.37 C 4.68 -34.45 5 -28.08 5.4 -22.1 Z M 51.67 -36.47 L 41.66 -35.43 L 36.98 -35.75 L 37.12 -37.38 L 33.02 -37.38 L 33.09 -36.08 L 32.56 -36.08 L 32.44 -37.38 L 29.19 -37.38 L 29.25 -36.34 L 28.02 -36.47 L 28.02 -32.5 L 29.25 -32.63 L 29.45 -32.63 L 29.45 -32.18 L 28.02 -31.92 L 28.02 -28.8 L 29.57 -28.93 L 29.9 -21.64 L 28.02 -21.78 L 28.21 -15.21 L 29.84 -15.21 L 29.19 -0.07 L 31.33 0.65 C 31.27 -0.84 31.2 -2.79 31.27 -3.31 C 31.33 -4.23 31.59 -6.44 31.59 -6.44 C 31.59 -6.44 31.46 -4.62 31.59 -2.67 L 31.85 0.78 L 37.12 2.54 L 36.08 -14.3 L 36.08 -15.15 L 40.82 -15.15 L 40.69 -14.76 L 43.88 -14.24 C 44.33 -15.41 45.05 -17.36 45.37 -18.91 L 44.78 -15.28 L 44.46 -14.11 L 48.49 -13.46 L 49.59 -26.39 L 52.2 -35.49 L 51.48 -35.49 Z M 36.73 -29.45 L 38.74 -29.57 L 43.62 -29.25 L 43.23 -24.64 L 42.58 -22.1 L 36.34 -21.25 Z M 33.15 -32.63 L 33.15 -32.56 L 32.89 -32.56 L 32.89 -32.63 Z M 33.15 -28.67 C 33.15 -28.8 33.09 -28.99 33.09 -29.19 L 33.15 -29.19 Z M 45.5 -19.57 C 45.5 -19.5 45.44 -19.37 45.44 -19.3 Z M 69.75 -7.21 C 70.59 -5.72 71.17 -4.29 71.56 -3.25 L 72.87 0.91 L 78.33 -1.1 L 74.88 -9.36 L 75.27 -9.29 L 75.2 -10.72 L 74.36 -10.66 L 74.1 -11.18 L 75.2 -11.38 L 75.08 -16.32 L 72.02 -16.25 L 68.84 -23.86 L 67.14 -29.71 L 69.16 -34.26 L 63.7 -35.62 C 61.75 -30.36 59.93 -25.61 60.52 -27.43 C 60.97 -28.93 62.2 -32.18 63.51 -35.62 L 61.75 -36.08 L 54.08 -15.86 L 50.12 -15.79 L 49.98 -13.97 C 51.16 -14.04 52.39 -14.04 53.37 -14.04 L 53.3 -13.85 C 52.33 -13.85 51.16 -13.85 49.98 -13.78 L 49.53 -8.19 L 51.22 -8.38 L 48.36 -0.84 L 52.98 0.98 C 53.88 -0.98 56.23 -5.59 57.52 -9.1 L 54.99 -2.02 L 53.56 1.17 L 54.86 1.69 L 58.7 -9.23 L 61.88 -9.62 L 67.08 -9.49 L 70.59 1.69 L 72.02 1.24 L 70.66 -3.38 C 70.39 -4.23 69.22 -6.96 69.09 -7.61 C 68.9 -8.32 68.84 -8.78 69.75 -7.21 Z M 61.49 -17.23 L 63.12 -20.87 L 64.81 -16.77 L 65 -16.12 L 61.03 -15.99 Z M 59.34 -11.12 L 64.67 -11.51 L 59.28 -10.92 Z M 81.83 -35.81 C 81.83 -30.42 81.77 -25.55 81.64 -27.37 C 81.57 -28.86 81.64 -32.24 81.7 -35.75 L 79.95 -35.55 L 79.43 0.58 L 84.17 0.72 C 84.43 -1.24 84.89 -5.98 85.02 -9.55 L 85.02 -2.6 L 84.82 0.78 L 86.19 0.78 L 85.93 -18.53 L 87.23 -36.4 Z M 85.15 -32.5 C 85.15 -28.73 83.91 -12.87 83.91 -12.87 C 83.91 -12.87 85.15 -36.2 85.15 -32.5 Z" fill="#000000"/>
</svg>