<svg xmlns="http://www.w3.org/2000/svg" viewBox="5.2 -96.2 137.7 97.5">
	<path d="M 29.95 -52.01 L 30.04 -51.88 C 31.2 -68 32.24 -81.52 32.24 -84.9 C 32.24 -90.88 29.38 -96.2 18.72 -96.2 L 13.66 -96.2 C 12.48 -96.2 11.96 -96.2 11.58 -95.82 C 11.18 -95.42 11.06 -94.52 10.92 -92.44 C 6.62 -23.02 5.2 -19.1 5.2 -12.74 C 5.2 -4.42 7.66 0 18.46 0 L 23.14 0 C 25.36 0 25.88 -0.52 26 -2.6 C 26.66 -10.8 27.42 -19.9 28.08 -29 Z M 67.08 -10.54 C 67.08 -12.62 54.46 -24.18 39.92 -40.3 C 56.04 -47.2 64.22 -52.64 64.22 -57.6 C 64.22 -61.62 58.24 -72.68 54.46 -72.68 C 53.82 -72.68 52.4 -72.28 50.82 -70.86 L 28.838 -51.222 C 28.762 -51.146 27.918 -28.962 27.918 -29.038 C 37.32 -11.84 46.42 1.3 55.64 1.3 C 63.58 1.3 67.08 -8.72 67.08 -10.54 Z M 142.88 -33.54 Z Z Z M 41.734 -20.978 Z M 142.88 -33.54 C 142.88 -41.74 139.36 -47.46 131.56 -51.36 C 139.62 -56.68 141.96 -63.32 141.96 -70.2 C 141.96 -82.16 134.94 -93.46 113.62 -93.46 C 88.66 -93.46 79.44 -77.88 79.44 -64.36 C 79.44 -55.52 83.34 -50.06 88.14 -47.96 C 78.78 -41.86 74.24 -33.68 74.24 -24.06 C 74.24 -9.36 85.16 1.3 104.92 1.3 C 132.34 1.3 142.88 -19.38 142.88 -33.54 Z M 110.5 -43.16 C 114.92 -43.16 118.04 -41.22 118.04 -34.46 C 118.04 -29.26 116.22 -18.98 107.12 -18.98 C 101.92 -18.98 99.06 -22.24 99.06 -28.86 C 99.06 -33.54 100.5 -43.16 110.5 -43.16 Z M 112.84 -75.26 C 117.78 -75.26 120 -72.16 120 -68 C 120 -63.18 118.18 -55.12 110.24 -55.12 C 105.96 -55.12 103.48 -57.34 103.48 -62.92 C 103.48 -67.08 105.18 -75.26 112.84 -75.26 Z" stroke="#000000" stroke-width="0.1" fill="#ffffff"/>
</svg>